<?xml version="1.0" standalone="no"?>
<!DOCTYPE svg PUBLIC "-//W3C//DTD SVG 20010904//EN"
 "http://www.w3.org/TR/2001/REC-SVG-20010904/DTD/svg10.dtd">
<svg version="1.0" xmlns="http://www.w3.org/2000/svg"
 width="276.000000pt" height="276.000000pt" viewBox="0 0 276.000000 276.000000"
 preserveAspectRatio="xMidYMid meet">
<metadata>
Created by potrace 1.14, written by Peter Selinger 2001-2017
</metadata>
<g transform="translate(0.000000,276.000000) scale(0.100000,-0.100000)"
fill="#000000" stroke="none">
<path d="M1353 2678 c-6 -7 -25 -42 -42 -78 -83 -168 -220 -279 -401 -326 -99
-25 -264 -16 -352 20 -111 45 -135 21 -91 -90 25 -64 27 -80 28 -209 0 -135
-2 -143 -33 -220 -61 -151 -163 -259 -316 -334 -60 -30 -71 -40 -71 -61 0 -21
12 -31 75 -63 182 -94 289 -223 336 -407 25 -99 16 -264 -20 -352 -45 -111
-21 -134 90 -92 91 35 257 45 352 20 184 -47 323 -161 411 -340 30 -60 40 -71
61 -71 21 0 31 12 63 75 94 182 223 289 407 336 99 25 264 16 352 -20 111 -45
135 -21 91 90 -25 64 -27 80 -28 209 0 135 2 143 33 220 61 151 163 259 316
334 60 30 71 40 71 61 0 21 -12 31 -75 63 -182 94 -289 223 -336 407 -25 99
-16 264 20 352 45 111 21 134 -90 92 -91 -35 -257 -45 -352 -20 -184 47 -323
161 -411 340 -37 72 -65 93 -88 64z m-13 -378 l0 -150 -42 -31 c-107 -77 -250
-138 -370 -157 l-57 -9 -106 107 -107 108 128 4 c113 4 139 9 212 36 105 39
205 106 274 182 29 32 56 59 61 59 4 1 7 -66 7 -149z m166 73 c144 -141 261
-191 467 -202 l127 -6 -107 -107 -108 -107 -65 13 c-126 27 -263 86 -352 151
l-48 35 0 150 c0 83 2 150 3 150 2 0 40 -35 83 -77z m-711 -551 c-25 -125 -82
-261 -150 -354 l-35 -48 -150 0 c-83 0 -150 2 -150 4 0 2 35 39 78 82 140 143
191 262 200 467 l5 129 107 -107 107 -107 -12 -66z m1410 -51 c36 -105 103
-209 183 -283 34 -31 62 -60 62 -63 0 -3 -69 -4 -152 -3 l-153 3 -47 69 c-59
86 -106 197 -128 306 l-18 85 106 108 107 107 6 -122 c5 -97 12 -141 34 -207z
m-865 239 c0 -15 -7 -20 -24 -20 -14 0 -37 -5 -53 -11 -34 -13 -26 -3 24 27
47 29 53 29 53 4z m168 -25 c71 -41 239 -105 276 -105 25 0 19 -13 -27 -58
l-43 -42 -61 36 c-41 24 -63 44 -68 61 -3 14 -13 36 -21 49 -18 26 -89 64
-122 64 -15 0 -22 6 -22 20 0 11 2 20 5 20 3 0 40 -20 83 -45z m-301 -43 c-15
-15 -31 -41 -37 -58 -6 -18 -24 -37 -43 -47 -18 -9 -44 -24 -59 -34 l-28 -17
-45 44 -44 44 68 17 c37 10 99 31 137 47 38 17 71 31 73 31 3 1 -7 -12 -22
-27z m246 -84 c9 -8 17 -31 19 -56 3 -43 4 -44 55 -61 91 -31 169 -106 180
-175 l6 -36 -134 0 c-106 0 -139 3 -157 16 -13 9 -37 14 -60 12 -29 -2 -38 -8
-40 -25 -4 -30 17 -39 129 -57 127 -21 184 -42 229 -85 93 -89 70 -253 -47
-331 -27 -17 -74 -38 -105 -47 l-58 -16 0 -42 c0 -22 -5 -46 -12 -53 -7 -7
-40 -12 -79 -12 -80 0 -99 13 -99 69 l0 37 -75 22 c-61 18 -85 31 -119 65 -42
43 -76 123 -61 146 4 7 51 11 125 11 102 0 124 -3 152 -20 32 -20 108 -27 142
-14 22 8 20 41 -2 53 -10 6 -63 17 -116 26 -121 19 -185 46 -230 95 -43 48
-60 99 -53 162 12 98 75 167 186 204 51 16 51 16 51 60 0 30 5 46 18 53 24 15
135 13 155 -1z m483 -252 c14 -33 41 -86 60 -117 19 -31 34 -59 34 -63 0 -3
-49 -6 -109 -6 -122 0 -134 7 -105 62 22 42 14 133 -17 188 l-23 40 49 50 49
50 18 -71 c11 -40 30 -99 44 -133z m-1000 153 l42 -41 -27 -51 c-23 -45 -26
-63 -26 -149 l0 -98 -98 0 c-54 0 -97 3 -95 8 2 4 21 38 42 77 39 68 106 243
106 278 0 25 10 21 56 -24z m-274 -493 c59 -86 106 -197 128 -306 l18 -85
-106 -108 -107 -107 -6 122 c-5 97 -12 141 -34 207 -36 105 -103 209 -183 283
-34 31 -62 60 -62 63 0 3 69 4 152 3 l153 -3 47 -69z m288 69 c0 -2 -12 -21
-26 -42 -23 -33 -25 -45 -21 -96 3 -34 17 -81 32 -113 l27 -56 -38 -39 -38
-39 -18 71 c-23 89 -60 177 -104 250 -19 31 -34 59 -34 63 0 3 50 6 110 6 61
0 110 -2 110 -5z m1080 -2 c0 -5 -14 -28 -30 -53 -38 -58 -87 -173 -109 -261
l-17 -68 -43 43 -44 44 21 29 c34 47 55 139 49 210 l-5 63 89 0 c49 0 89 -3
89 -7z m420 3 c0 -2 -35 -39 -77 -82 -141 -143 -192 -262 -201 -467 l-5 -129
-107 107 -107 107 12 66 c25 125 82 261 150 355 l35 47 150 0 c83 0 150 -2
150 -4z m-683 -408 l42 -42 -67 -17 c-85 -21 -180 -61 -253 -105 -66 -40 -69
-40 -69 -14 0 14 7 20 23 20 45 0 110 43 133 89 16 33 35 51 80 76 33 18 61
33 64 34 2 0 23 -18 47 -41z m-670 0 c44 -22 68 -40 75 -57 5 -14 21 -38 35
-52 l25 -27 -84 34 c-45 18 -107 39 -135 45 -29 7 -53 15 -53 18 0 6 62 71 68
71 3 0 34 -14 69 -32z m-107 -144 c92 -25 202 -74 276 -123 l69 -46 3 -152 c1
-84 1 -153 -1 -153 -2 0 -40 35 -83 78 -146 141 -262 191 -467 200 l-129 5
108 108 c119 120 104 114 224 83z m983 -195 c-109 -5 -140 -11 -211 -37 -104
-39 -204 -105 -276 -182 -30 -33 -57 -60 -60 -60 -4 0 -6 67 -6 150 l0 150 43
31 c105 76 251 139 369 157 l53 9 108 -106 107 -106 -127 -6z m-633 159 c0
-10 -3 -18 -6 -18 -6 0 -94 51 -94 54 0 1 23 -2 50 -8 38 -7 50 -14 50 -28z"/>
</g>
</svg>
